<svg width="38" height="38" viewBox="0 0 38 38" fill="none" xmlns="http://www.w3.org/2000/svg">
<path d="M33.0741 18.0418C31.7946 18.0418 30.7071 17.1681 30.5152 15.9201C30.1313 13.6736 29.3636 12.1135 28.532 12.1135C27.7003 12.1135 26.9966 13.6112 26.5488 15.7953C26.4209 16.6689 25.5892 17.2929 24.6936 17.2929H23.9899H23.862C22.8384 17.2929 22.0067 16.5441 21.9428 15.5457C21.6229 10.0542 20.7273 5.87325 19.5118 4.93721C19.4478 4.87481 19.3199 4.8124 19.2559 4.8124C19.1919 4.8124 19.1919 4.8124 19.1279 4.75C19.064 4.75 19.064 4.75 19 4.75C18.936 4.75 18.936 4.75 18.8721 4.75C18.8081 4.75 18.8081 4.75 18.7441 4.8124C18.6801 4.87481 18.5522 4.87481 18.4882 4.93721C17.3367 5.87325 16.3771 10.1166 16.0572 15.5457C15.9933 16.5441 15.1616 17.2929 14.138 17.2929H14.0101H13.3064C12.4108 17.2929 11.5791 16.6689 11.4512 15.7953C11.0673 13.6112 10.2997 12.1135 9.46801 12.1135C8.63636 12.1135 7.86869 13.6736 7.48485 15.9201C7.29293 17.1057 6.20539 18.0418 4.92593 18.0418C2.17508 18.0418 0 18.7282 0 19.5394C0 20.3507 2.17508 21.0371 4.92593 21.0371C6.20539 21.0371 7.29293 21.9107 7.48485 23.1588C7.86869 25.4053 8.63636 26.9653 9.46801 26.9653C10.2997 26.9653 11.0034 25.4677 11.4512 23.2836C11.5791 22.4099 12.4108 21.7859 13.3064 21.7859H14.0101H14.138C15.1616 21.7859 15.9293 22.5347 16.0572 23.5332C16.3771 29.0246 17.2727 33.2056 18.4882 34.1416C18.5522 34.204 18.6801 34.2664 18.7441 34.2664C18.8081 34.2664 18.8081 34.2664 18.8721 34.3288C18.936 34.3288 18.936 34.3288 19 34.3288C19.064 34.3288 19.064 34.3288 19.1279 34.3288C19.1919 34.3288 19.1919 34.3288 19.2559 34.2664C19.3199 34.204 19.4478 34.204 19.5118 34.1416C20.6633 33.2056 21.6229 28.9622 21.9428 23.5332C22.0067 22.5347 22.8384 21.7859 23.862 21.7859H23.9899H24.6936C25.5892 21.7859 26.4209 22.4099 26.5488 23.2836C26.9327 25.4677 27.7003 26.9653 28.532 26.9653C29.3636 26.9653 30.1313 25.4053 30.5152 23.1588C30.7071 21.9731 31.7946 21.0371 33.0741 21.0371C35.8249 21.0371 38 20.3507 38 19.5394C38 18.7282 35.8249 18.0418 33.0741 18.0418Z" fill="#211700"/>
</svg>
